<?xml version="1.0" encoding="UTF-8"?>
<svg xmlns="http://www.w3.org/2000/svg" viewBox="0 0 1200 630"><defs><radialGradient id="g1" cx="0.82" cy="0.15" r="0.6"><stop offset="0" stop-color="#8B5CF6" stop-opacity=".55"/><stop offset="1" stop-color="#8B5CF6" stop-opacity="0"/></radialGradient><radialGradient id="g2" cx="0.15" cy="0.9" r="0.6"><stop offset="0" stop-color="#4F7BFF" stop-opacity=".45"/><stop offset="1" stop-color="#4F7BFF" stop-opacity="0"/></radialGradient><radialGradient id="g3" cx="0.5" cy="0.5" r="0.45"><stop offset="0" stop-color="#D946EF" stop-opacity=".25"/><stop offset="1" stop-color="#D946EF" stop-opacity="0"/></radialGradient></defs><rect width="1200" height="630" fill="#120F2E"/><rect width="1200" height="630" fill="url(#g1)"/><rect width="1200" height="630" fill="url(#g2)"/><rect width="1200" height="630" fill="url(#g3)"/><g transform="translate(228.0 217.3) scale(0.47744)"><defs><linearGradient id="ls2l" gradientUnits="userSpaceOnUse" x1="68" y1="694" x2="531" y2="694"><stop offset="0" stop-color="#3E86FF"/><stop offset=".36" stop-color="#6C63F7"/><stop offset=".58" stop-color="#7C4DF4"/><stop offset=".8" stop-color="#9D4EF0"/><stop offset="1" stop-color="#C451E8"/></linearGradient><linearGradient id="ls2b" gradientUnits="userSpaceOnUse" x1="350" y1="220" x2="690" y2="690"><stop offset="0" stop-color="#8A5CF6"/><stop offset=".5" stop-color="#D23FEA"/><stop offset=".78" stop-color="#E04BD0"/><stop offset="1" stop-color="#FF7A8B"/></linearGradient><linearGradient id="ls2s" gradientUnits="userSpaceOnUse" x1="512" y1="200" x2="664" y2="80"><stop offset="0" stop-color="#4F7BFF"/><stop offset=".5" stop-color="#9B5CF4"/><stop offset="1" stop-color="#E545D6"/></linearGradient><linearGradient id="ls2w" gradientUnits="userSpaceOnUse" x1="520.2" y1="0" x2="1544.3" y2="0"><stop offset="0" stop-color="#4F7BFF"/><stop offset=".55" stop-color="#8B5CF6"/><stop offset="1" stop-color="#B34DEC"/></linearGradient></defs><g transform="translate(14.00 14.00) scale(0.58125) translate(-66 -40)"><path d="M68,694 L258,388 C272,368 289,361 306,361 C323,361 340,370 352,388 C400,468 470,588 531,694 C470,694 420,684 388,650 L301,520 L226,630 C206,664 168,694 100,694 Z" fill="url(#ls2l)"/><path d="M737,694 L467,250 C458,232 450,214 440,203 C432,191 414,189 402,199 L360,240 C344,256 340,286 354,310 L557,630 C580,662 625,694 690,694 Z" fill="url(#ls2b)"/><path d="M588,42 Q596,130 664,138 Q596,146 588,228 Q580,146 512,138 Q580,130 588,42 Z" fill="url(#ls2s)"/></g><path fill="#FFFFFF" d="M520.1525 296.3 586.3025 149.3H613.1825L679.5425 296.3H650.9825L594.0725 163.79000000000002H604.9925L548.2925 296.3ZM550.6025 262.28000000000003 557.9525 240.86H637.3325L644.6825 262.28000000000003ZM769.6324999999999 296.3V149.3H829.9024999999999Q859.3024999999999 149.3 875.9975 163.16000000000003Q892.6924999999999 177.02 892.6924999999999 201.59000000000003Q892.6924999999999 217.76000000000002 885.1324999999999 229.41500000000002Q877.5724999999999 241.07000000000002 863.6074999999998 247.26500000000001Q849.6424999999999 253.46 830.1125 253.46H784.7524999999999L796.9324999999999 241.07000000000002V296.3ZM865.8124999999999 296.3 828.6424999999999 242.96H857.8325L895.2124999999999 296.3ZM796.9324999999999 244.01000000000002 784.7524999999999 230.99H828.8525Q846.9124999999999 230.99 856.0474999999999 223.22000000000003Q865.1824999999999 215.45000000000002 865.1824999999999 201.59000000000003Q865.1824999999999 187.52 856.0474999999999 179.96000000000004Q846.9124999999999 172.40000000000003 828.8525 172.40000000000003H784.7524999999999L796.9324999999999 158.96ZM1017.4325 298.40000000000003Q1003.3625 298.40000000000003 991.4975 292.94000000000005Q979.6325 287.48 972.0725 277.19L987.6125 258.5Q993.7025 266.90000000000003 1000.9475 271.1Q1008.1925 275.3 1016.8025 275.3Q1039.6925 275.3 1039.6925 248.21V172.19H987.4025V149.3H1066.9925V246.74Q1066.9925 272.78000000000003 1054.2875 285.59000000000003Q1041.5825 298.40000000000003 1017.4325 298.40000000000003ZM1239.8225 298.40000000000003Q1209.5825 298.40000000000003 1192.4675 281.39Q1175.3525 264.38 1175.3525 232.25V149.3H1202.6525V231.20000000000002Q1202.6525 253.88 1212.4175 264.17Q1222.1825 274.46000000000004 1240.0325 274.46000000000004Q1257.8825 274.46000000000004 1267.5425 264.17Q1277.2024999999999 253.88 1277.2024999999999 231.20000000000002V149.3H1304.0825V232.25Q1304.0825 264.38 1286.9675 281.39Q1269.8525 298.40000000000003 1239.8225 298.40000000000003ZM1413.7025 296.3V149.3H1436.1725000000001L1528.3625000000002 262.49H1517.2325V149.3H1544.3225V296.3H1521.8525000000002L1429.6625000000001 183.11H1440.7925V296.3Z"/><path fill="#C9BEFF" d="M520.1525 395.3V360.3H544.8525000000001V364.65000000000003H525.1525V395.3ZM524.6525 381.15000000000003V376.85H542.7025V381.15000000000003ZM560.1470833333334 395.3V360.3H573.7970833333334Q580.5970833333334 360.3 584.4970833333334 363.525Q588.3970833333334 366.75 588.3970833333334 372.5Q588.3970833333334 376.3 586.6470833333334 379.025Q584.8970833333334 381.75 581.6470833333334 383.20000000000005Q578.3970833333334 384.65000000000003 573.7970833333334 384.65000000000003H562.8970833333334L565.1470833333334 382.35V395.3ZM583.5470833333334 395.3 574.6470833333334 382.6H579.9970833333334L588.9970833333334 395.3ZM565.1470833333334 382.85 562.8970833333334 380.40000000000003H573.6470833333334Q578.4470833333334 380.40000000000003 580.9220833333334 378.32500000000005Q583.3970833333334 376.25 583.3970833333334 372.5Q583.3970833333334 368.75 580.9220833333334 366.70000000000005Q578.4470833333334 364.65000000000003 573.6470833333334 364.65000000000003H562.8970833333334L565.1470833333334 362.15000000000003ZM620.5416666666666 395.7Q616.5416666666666 395.7 613.1166666666667 394.35Q609.6916666666667 393.0 607.1916666666667 390.57500000000005Q604.6916666666667 388.15000000000003 603.2916666666667 384.90000000000003Q601.8916666666667 381.65000000000003 601.8916666666667 377.8Q601.8916666666667 373.95 603.2916666666667 370.7Q604.6916666666667 367.45 607.1916666666667 365.025Q609.6916666666667 362.6 613.0916666666667 361.25Q616.4916666666667 359.90000000000003 620.5416666666666 359.90000000000003Q624.5416666666666 359.90000000000003 627.9166666666666 361.225Q631.2916666666666 362.55 633.8166666666666 364.975Q636.3416666666667 367.40000000000003 637.7166666666667 370.65000000000003Q639.0916666666667 373.90000000000003 639.0916666666667 377.8Q639.0916666666667 381.7 637.7166666666667 384.95Q636.3416666666667 388.2 633.8166666666666 390.625Q631.2916666666666 393.05 627.9166666666666 394.375Q624.5416666666666 395.7 620.5416666666666 395.7ZM620.5416666666666 391.25Q623.4416666666667 391.25 625.9166666666667 390.25Q628.3916666666667 389.25 630.2166666666667 387.425Q632.0416666666666 385.6 633.0666666666666 383.15Q634.0916666666667 380.7 634.0916666666667 377.8Q634.0916666666667 374.90000000000003 633.0666666666666 372.45000000000005Q632.0416666666666 370.0 630.2166666666667 368.175Q628.3916666666667 366.35 625.9166666666667 365.35Q623.4416666666667 364.35 620.5416666666666 364.35Q617.5916666666667 364.35 615.1166666666667 365.35Q612.6416666666667 366.35 610.7916666666667 368.175Q608.9416666666667 370.0 607.9166666666667 372.45000000000005Q606.8916666666667 374.90000000000003 606.8916666666667 377.8Q606.8916666666667 380.7 607.9166666666667 383.15Q608.9416666666667 385.6 610.7916666666667 387.425Q612.6416666666667 389.25 615.1166666666667 390.25Q617.5916666666667 391.25 620.5416666666666 391.25ZM654.98625 395.3V360.3H659.0862500000001L674.78625 386.75H672.5862500000001L688.0862500000001 360.3H692.1862500000001L692.23625 395.3H687.4362500000001L687.38625 367.85H688.53625L674.73625 391.05H672.4362500000001L658.53625 367.85H659.78625V395.3ZM732.6754166666667 395.3V360.3H746.3254166666667Q750.9254166666667 360.3 754.1754166666667 361.75Q757.4254166666667 363.2 759.1754166666667 365.95Q760.9254166666667 368.7 760.9254166666667 372.5Q760.9254166666667 376.3 759.1754166666667 379.025Q757.4254166666667 381.75 754.1754166666667 383.225Q750.9254166666667 384.7 746.3254166666667 384.7H735.4254166666667L737.6754166666667 382.35V395.3ZM737.6754166666667 382.85 735.4254166666667 380.35H746.1754166666667Q750.9754166666667 380.35 753.4504166666667 378.3Q755.9254166666667 376.25 755.9254166666667 372.5Q755.9254166666667 368.75 753.4504166666667 366.70000000000005Q750.9754166666667 364.65000000000003 746.1754166666667 364.65000000000003H735.4254166666667L737.6754166666667 362.15000000000003ZM777.02 395.3V360.3H790.67Q797.47 360.3 801.37 363.525Q805.27 366.75 805.27 372.5Q805.27 376.3 803.52 379.025Q801.77 381.75 798.52 383.20000000000005Q795.27 384.65000000000003 790.67 384.65000000000003H779.77L782.02 382.35V395.3ZM800.42 395.3 791.52 382.6H796.87L805.87 395.3ZM782.02 382.85 779.77 380.40000000000003H790.52Q795.3199999999999 380.40000000000003 797.795 378.32500000000005Q800.27 376.25 800.27 372.5Q800.27 368.75 797.795 366.70000000000005Q795.3199999999999 364.65000000000003 790.52 364.65000000000003H779.77L782.02 362.15000000000003ZM837.4145833333333 395.7Q833.4145833333333 395.7 829.9895833333334 394.35Q826.5645833333334 393.0 824.0645833333334 390.57500000000005Q821.5645833333334 388.15000000000003 820.1645833333334 384.90000000000003Q818.7645833333333 381.65000000000003 818.7645833333333 377.8Q818.7645833333333 373.95 820.1645833333334 370.7Q821.5645833333334 367.45 824.0645833333334 365.025Q826.5645833333334 362.6 829.9645833333334 361.25Q833.3645833333334 359.90000000000003 837.4145833333333 359.90000000000003Q841.4145833333333 359.90000000000003 844.7895833333333 361.225Q848.1645833333333 362.55 850.6895833333333 364.975Q853.2145833333334 367.40000000000003 854.5895833333334 370.65000000000003Q855.9645833333334 373.90000000000003 855.9645833333334 377.8Q855.9645833333334 381.7 854.5895833333334 384.95Q853.2145833333334 388.2 850.6895833333333 390.625Q848.1645833333333 393.05 844.7895833333333 394.375Q841.4145833333333 395.7 837.4145833333333 395.7ZM837.4145833333333 391.25Q840.3145833333334 391.25 842.7895833333334 390.25Q845.2645833333333 389.25 847.0895833333334 387.425Q848.9145833333333 385.6 849.9395833333333 383.15Q850.9645833333334 380.7 850.9645833333334 377.8Q850.9645833333334 374.90000000000003 849.9395833333333 372.45000000000005Q848.9145833333333 370.0 847.0895833333334 368.175Q845.2645833333333 366.35 842.7895833333334 365.35Q840.3145833333334 364.35 837.4145833333333 364.35Q834.4645833333334 364.35 831.9895833333334 365.35Q829.5145833333333 366.35 827.6645833333334 368.175Q825.8145833333334 370.0 824.7895833333334 372.45000000000005Q823.7645833333333 374.90000000000003 823.7645833333333 377.8Q823.7645833333333 380.7 824.7895833333334 383.15Q825.8145833333334 385.6 827.6645833333334 387.425Q829.5145833333333 389.25 831.9895833333334 390.25Q834.4645833333334 391.25 837.4145833333333 391.25ZM871.8591666666666 395.3V360.3H887.5591666666667Q893.6091666666666 360.3 896.8591666666666 362.725Q900.1091666666666 365.15000000000003 900.1091666666666 369.35Q900.1091666666666 372.2 898.8341666666666 374.15Q897.5591666666667 376.1 895.4091666666666 377.15Q893.2591666666666 378.2 890.7591666666666 378.2L891.6591666666666 376.7Q894.6591666666666 376.7 896.9591666666665 377.75Q899.2591666666666 378.8 900.6091666666666 380.82500000000005Q901.9591666666666 382.85 901.9591666666666 385.85Q901.9591666666666 390.35 898.5841666666666 392.82500000000005Q895.2091666666666 395.3 888.5591666666667 395.3ZM876.8591666666666 391.25H888.3591666666666Q892.5091666666666 391.25 894.7091666666665 389.85Q896.9091666666666 388.45 896.9091666666666 385.45Q896.9091666666666 382.40000000000003 894.7091666666665 381.0Q892.5091666666666 379.6 888.3591666666666 379.6H876.4091666666666V375.55H887.1091666666666Q890.9091666666666 375.55 893.0091666666666 374.15Q895.1091666666666 372.75 895.1091666666666 369.95Q895.1091666666666 367.15000000000003 893.0091666666666 365.75Q890.9091666666666 364.35 887.1091666666666 364.35H876.8591666666666ZM917.95375 395.3V360.3H922.95375V390.95H941.9037500000001V395.3ZM955.8983333333333 395.3V360.3H980.5983333333334V364.65000000000003H960.8983333333333V390.95H981.2983333333333V395.3ZM960.4483333333333 379.65000000000003V375.40000000000003H978.4483333333333V379.65000000000003ZM997.6429166666667 395.3V360.3H1001.7429166666667L1017.4429166666666 386.75H1015.2429166666667L1030.7429166666666 360.3H1034.8429166666667L1034.8929166666667 395.3H1030.0929166666667L1030.0429166666668 367.85H1031.1929166666666L1017.3929166666667 391.05H1015.0929166666667L1001.1929166666666 367.85H1002.4429166666666V395.3ZM1082.2820833333333 395.3V364.65000000000003H1070.2820833333333V360.3H1099.2320833333333V364.65000000000003H1087.2320833333333V395.3ZM1128.7266666666667 395.7Q1124.7266666666667 395.7 1121.3016666666667 394.35Q1117.8766666666668 393.0 1115.3766666666668 390.57500000000005Q1112.8766666666668 388.15000000000003 1111.476666666667 384.90000000000003Q1110.0766666666668 381.65000000000003 1110.0766666666668 377.8Q1110.0766666666668 373.95 1111.476666666667 370.7Q1112.8766666666668 367.45 1115.3766666666668 365.025Q1117.8766666666668 362.6 1121.2766666666666 361.25Q1124.6766666666667 359.90000000000003 1128.7266666666667 359.90000000000003Q1132.7266666666667 359.90000000000003 1136.1016666666667 361.225Q1139.4766666666667 362.55 1142.0016666666666 364.975Q1144.5266666666666 367.40000000000003 1145.9016666666666 370.65000000000003Q1147.2766666666666 373.90000000000003 1147.2766666666666 377.8Q1147.2766666666666 381.7 1145.9016666666666 384.95Q1144.5266666666666 388.2 1142.0016666666666 390.625Q1139.4766666666667 393.05 1136.1016666666667 394.375Q1132.7266666666667 395.7 1128.7266666666667 395.7ZM1128.7266666666667 391.25Q1131.6266666666668 391.25 1134.101666666667 390.25Q1136.5766666666668 389.25 1138.4016666666666 387.425Q1140.2266666666667 385.6 1141.2516666666666 383.15Q1142.2766666666666 380.7 1142.2766666666666 377.8Q1142.2766666666666 374.90000000000003 1141.2516666666666 372.45000000000005Q1140.2266666666667 370.0 1138.4016666666666 368.175Q1136.5766666666668 366.35 1134.101666666667 365.35Q1131.6266666666668 364.35 1128.7266666666667 364.35Q1125.7766666666666 364.35 1123.3016666666667 365.35Q1120.8266666666668 366.35 1118.976666666667 368.175Q1117.1266666666668 370.0 1116.101666666667 372.45000000000005Q1115.0766666666668 374.90000000000003 1115.0766666666668 377.8Q1115.0766666666668 380.7 1116.101666666667 383.15Q1117.1266666666668 385.6 1118.976666666667 387.425Q1120.8266666666668 389.25 1123.3016666666667 390.25Q1125.7766666666666 391.25 1128.7266666666667 391.25ZM1195.0658333333333 395.7Q1191.0658333333333 395.7 1187.4158333333335 394.475Q1183.7658333333334 393.25 1181.6658333333332 391.3L1183.5158333333334 387.40000000000003Q1185.5158333333334 389.15000000000003 1188.6158333333333 390.3Q1191.7158333333332 391.45 1195.0658333333333 391.45Q1198.1158333333333 391.45 1200.0158333333334 390.75Q1201.9158333333332 390.05 1202.815833333333 388.82500000000005Q1203.7158333333332 387.6 1203.7158333333332 386.05Q1203.7158333333332 384.25 1202.5408333333332 383.15Q1201.3658333333333 382.05 1199.4908333333333 381.375Q1197.6158333333333 380.7 1195.3658333333333 380.2Q1193.1158333333333 379.7 1190.8408333333332 379.025Q1188.5658333333333 378.35 1186.6908333333333 377.3Q1184.8158333333333 376.25 1183.6658333333335 374.475Q1182.5158333333334 372.7 1182.5158333333334 369.90000000000003Q1182.5158333333334 367.2 1183.9408333333333 364.925Q1185.3658333333333 362.65000000000003 1188.3408333333332 361.27500000000003Q1191.3158333333333 359.90000000000003 1195.9158333333332 359.90000000000003Q1198.9658333333332 359.90000000000003 1201.9658333333332 360.70000000000005Q1204.9658333333332 361.5 1207.1658333333332 363.0L1205.5158333333334 367.0Q1203.2658333333334 365.5 1200.7658333333334 364.82500000000005Q1198.2658333333334 364.15000000000003 1195.9158333333332 364.15000000000003Q1192.9658333333332 364.15000000000003 1191.065833333333 364.90000000000003Q1189.1658333333332 365.65000000000003 1188.2908333333332 366.90000000000003Q1187.4158333333332 368.15000000000003 1187.4158333333332 369.7Q1187.4158333333332 371.55 1188.5908333333332 372.65Q1189.7658333333334 373.75 1191.6408333333334 374.4Q1193.5158333333334 375.05 1195.7658333333334 375.57500000000005Q1198.0158333333334 376.1 1200.2908333333335 376.75Q1202.5658333333333 377.40000000000003 1204.4408333333333 378.45000000000005Q1206.3158333333333 379.5 1207.4658333333332 381.25Q1208.6158333333333 383.0 1208.6158333333333 385.75Q1208.6158333333333 388.40000000000003 1207.1658333333332 390.675Q1205.7158333333332 392.95 1202.690833333333 394.325Q1199.6658333333332 395.7 1195.0658333333333 395.7ZM1239.9604166666666 395.7Q1235.9604166666666 395.7 1232.5354166666666 394.35Q1229.1104166666667 393.0 1226.6104166666667 390.57500000000005Q1224.1104166666667 388.15000000000003 1222.7104166666668 384.90000000000003Q1221.3104166666667 381.65000000000003 1221.3104166666667 377.8Q1221.3104166666667 373.95 1222.7104166666668 370.7Q1224.1104166666667 367.45 1226.6104166666667 365.025Q1229.1104166666667 362.6 1232.5104166666665 361.25Q1235.9104166666666 359.90000000000003 1239.9604166666666 359.90000000000003Q1243.9604166666666 359.90000000000003 1247.3354166666666 361.225Q1250.7104166666666 362.55 1253.2354166666664 364.975Q1255.7604166666665 367.40000000000003 1257.1354166666665 370.65000000000003Q1258.5104166666665 373.90000000000003 1258.5104166666665 377.8Q1258.5104166666665 381.7 1257.1354166666665 384.95Q1255.7604166666665 388.2 1253.2354166666664 390.625Q1250.7104166666666 393.05 1247.3354166666666 394.375Q1243.9604166666666 395.7 1239.9604166666666 395.7ZM1239.9604166666666 391.25Q1242.8604166666667 391.25 1245.3354166666668 390.25Q1247.8104166666667 389.25 1249.6354166666665 387.425Q1251.4604166666666 385.6 1252.4854166666664 383.15Q1253.5104166666665 380.7 1253.5104166666665 377.8Q1253.5104166666665 374.90000000000003 1252.4854166666664 372.45000000000005Q1251.4604166666666 370.0 1249.6354166666665 368.175Q1247.8104166666667 366.35 1245.3354166666668 365.35Q1242.8604166666667 364.35 1239.9604166666666 364.35Q1237.0104166666665 364.35 1234.5354166666666 365.35Q1232.0604166666667 366.35 1230.2104166666668 368.175Q1228.3604166666667 370.0 1227.3354166666668 372.45000000000005Q1226.3104166666667 374.90000000000003 1226.3104166666667 377.8Q1226.3104166666667 380.7 1227.3354166666668 383.15Q1228.3604166666667 385.6 1230.2104166666668 387.425Q1232.0604166666667 389.25 1234.5354166666666 390.25Q1237.0104166666665 391.25 1239.9604166666666 391.25ZM1274.405 395.3V360.3H1279.405V390.95H1298.355V395.3ZM1326.8495833333332 395.7Q1319.949583333333 395.7 1315.9995833333332 391.75Q1312.0495833333332 387.8 1312.0495833333332 380.2V360.3H1317.0495833333332V380.0Q1317.0495833333332 385.85 1319.6245833333332 388.55Q1322.199583333333 391.25 1326.899583333333 391.25Q1331.649583333333 391.25 1334.2245833333332 388.55Q1336.7995833333332 385.85 1336.7995833333332 380.0V360.3H1341.649583333333V380.2Q1341.649583333333 387.8 1337.7245833333332 391.75Q1333.7995833333332 395.7 1326.8495833333332 395.7ZM1367.0941666666665 395.3V364.65000000000003H1355.0941666666665V360.3H1384.0441666666666V364.65000000000003H1372.0441666666666V395.3ZM1397.73875 395.3V360.3H1402.73875V395.3ZM1437.283333333333 395.7Q1433.283333333333 395.7 1429.8583333333331 394.35Q1426.4333333333332 393.0 1423.9333333333332 390.57500000000005Q1421.4333333333332 388.15000000000003 1420.0333333333333 384.90000000000003Q1418.6333333333332 381.65000000000003 1418.6333333333332 377.8Q1418.6333333333332 373.95 1420.0333333333333 370.7Q1421.4333333333332 367.45 1423.9333333333332 365.025Q1426.4333333333332 362.6 1429.833333333333 361.25Q1433.2333333333331 359.90000000000003 1437.283333333333 359.90000000000003Q1441.283333333333 359.90000000000003 1444.658333333333 361.225Q1448.033333333333 362.55 1450.558333333333 364.975Q1453.083333333333 367.40000000000003 1454.458333333333 370.65000000000003Q1455.833333333333 373.90000000000003 1455.833333333333 377.8Q1455.833333333333 381.7 1454.458333333333 384.95Q1453.083333333333 388.2 1450.558333333333 390.625Q1448.033333333333 393.05 1444.658333333333 394.375Q1441.283333333333 395.7 1437.283333333333 395.7ZM1437.283333333333 391.25Q1440.1833333333332 391.25 1442.6583333333333 390.25Q1445.1333333333332 389.25 1446.958333333333 387.425Q1448.783333333333 385.6 1449.808333333333 383.15Q1450.833333333333 380.7 1450.833333333333 377.8Q1450.833333333333 374.90000000000003 1449.808333333333 372.45000000000005Q1448.783333333333 370.0 1446.958333333333 368.175Q1445.1333333333332 366.35 1442.6583333333333 365.35Q1440.1833333333332 364.35 1437.283333333333 364.35Q1434.333333333333 364.35 1431.8583333333331 365.35Q1429.3833333333332 366.35 1427.5333333333333 368.175Q1425.6833333333332 370.0 1424.6583333333333 372.45000000000005Q1423.6333333333332 374.90000000000003 1423.6333333333332 377.8Q1423.6333333333332 380.7 1424.6583333333333 383.15Q1425.6833333333332 385.6 1427.5333333333333 387.425Q1429.3833333333332 389.25 1431.8583333333331 390.25Q1434.333333333333 391.25 1437.283333333333 391.25ZM1471.7279166666667 395.3V360.3H1475.8279166666666L1498.9779166666667 389.05H1496.8279166666666V360.3H1501.8279166666666V395.3H1497.7279166666667L1474.5779166666666 366.55H1476.7279166666667V395.3ZM1530.7724999999998 395.7Q1526.7724999999998 395.7 1523.1225 394.475Q1519.4724999999999 393.25 1517.3724999999997 391.3L1519.2224999999999 387.40000000000003Q1521.2224999999999 389.15000000000003 1524.3224999999998 390.3Q1527.4224999999997 391.45 1530.7724999999998 391.45Q1533.8224999999998 391.45 1535.7224999999999 390.75Q1537.6224999999997 390.05 1538.5224999999996 388.82500000000005Q1539.4224999999997 387.6 1539.4224999999997 386.05Q1539.4224999999997 384.25 1538.2474999999997 383.15Q1537.0724999999998 382.05 1535.1974999999998 381.375Q1533.3224999999998 380.7 1531.0724999999998 380.2Q1528.8224999999998 379.7 1526.5474999999997 379.025Q1524.2724999999998 378.35 1522.3974999999998 377.3Q1520.5224999999998 376.25 1519.3725 374.475Q1518.2224999999999 372.7 1518.2224999999999 369.90000000000003Q1518.2224999999999 367.2 1519.6474999999998 364.925Q1521.0724999999998 362.65000000000003 1524.0474999999997 361.27500000000003Q1527.0224999999998 359.90000000000003 1531.6224999999997 359.90000000000003Q1534.6724999999997 359.90000000000003 1537.6724999999997 360.70000000000005Q1540.6724999999997 361.5 1542.8724999999997 363.0L1541.2224999999999 367.0Q1538.9724999999999 365.5 1536.4724999999999 364.82500000000005Q1533.9724999999999 364.15000000000003 1531.6224999999997 364.15000000000003Q1528.6724999999997 364.15000000000003 1526.7724999999996 364.90000000000003Q1524.8724999999997 365.65000000000003 1523.9974999999997 366.90000000000003Q1523.1224999999997 368.15000000000003 1523.1224999999997 369.7Q1523.1224999999997 371.55 1524.2974999999997 372.65Q1525.4724999999999 373.75 1527.3474999999999 374.4Q1529.2224999999999 375.05 1531.4724999999999 375.57500000000005Q1533.7224999999999 376.1 1535.9975 376.75Q1538.2724999999998 377.40000000000003 1540.1474999999998 378.45000000000005Q1542.0224999999998 379.5 1543.1724999999997 381.25Q1544.3224999999998 383.0 1544.3224999999998 385.75Q1544.3224999999998 388.40000000000003 1542.8724999999997 390.675Q1541.4224999999997 392.95 1538.3974999999996 394.325Q1535.3724999999997 395.7 1530.7724999999998 395.7Z"/></g></svg>