<?xml version="1.0" encoding="UTF-8"?>
<svg xmlns="http://www.w3.org/2000/svg" viewBox="0 0 1052.2 177"><path fill="#000000" d="M14.0 161.0 80.14999999999999 14.0H107.02999999999999L173.39000000000001 161.0H144.83L87.91999999999999 28.49000000000001H98.83999999999999L42.14 161.0ZM44.45 126.98 51.8 105.56H131.18L138.53 126.98ZM263.48 161.0V14.0H323.75Q353.15 14.0 369.84499999999997 27.86Q386.53999999999996 41.72 386.53999999999996 66.29Q386.53999999999996 82.46000000000001 378.98 94.11500000000001Q371.42 105.77000000000001 357.45500000000004 111.965Q343.49 118.16 323.96000000000004 118.16H278.6L290.78000000000003 105.77000000000001V161.0ZM359.66 161.0 322.49 107.66H351.68L389.06 161.0ZM290.78000000000003 108.71000000000001 278.6 95.69H322.7Q340.76 95.69 349.895 87.92Q359.03 80.15 359.03 66.29Q359.03 52.22 349.895 44.660000000000004Q340.76 37.10000000000001 322.7 37.10000000000001H278.6L290.78000000000003 23.659999999999997ZM511.28000000000003 163.1Q497.21000000000004 163.1 485.345 157.64Q473.48 152.18 465.92 141.89L481.46000000000004 123.2Q487.55 131.6 494.795 135.8Q502.04 140.0 510.65000000000003 140.0Q533.5400000000001 140.0 533.5400000000001 112.91V36.89H481.25000000000006V14.0H560.84V111.44Q560.84 137.48 548.135 150.29Q535.4300000000001 163.1 511.28000000000003 163.1ZM733.6700000000001 163.1Q703.4300000000001 163.1 686.315 146.09Q669.2 129.08 669.2 96.95V14.0H696.5V95.9Q696.5 118.58 706.265 128.87Q716.03 139.16 733.88 139.16Q751.73 139.16 761.3900000000001 128.87Q771.0500000000001 118.58 771.0500000000001 95.9V14.0H797.9300000000001V96.95Q797.9300000000001 129.08 780.815 146.09Q763.7 163.1 733.6700000000001 163.1ZM907.5500000000001 161.0V14.0H930.0200000000001L1022.21 127.19H1011.08V14.0H1038.17V161.0H1015.7L923.5100000000001 47.81H934.6400000000001V161.0Z"/></svg>